<svg xmlns="http://www.w3.org/2000/svg" viewBox="0 0 460 300">
  <rect x="10" y="10" width="440" height="280" fill="#f0f0f0" stroke="#000000" stroke-width="2"/>
  
  <!-- Input layer -->
  <rect x="30" y="110" width="40" height="50" fill="#90EE90" stroke="#000000"/>
  <text x="50" y="140" font-family="Arial" font-size="10" text-anchor="middle">states</text>
  
  <rect x="30" y="160" width="40" height="50" fill="#DDA0DD" stroke="#000000"/>
  <text x="50" y="185" font-family="Arial" font-size="10" text-anchor="middle">taken</text>
  <text x="50" y="200" font-family="Arial" font-size="10" text-anchor="middle">actions</text>
  
  <!-- Hidden layers -->
  <rect x="120" y="90" width="55" height="140" fill="#D3D3D3" stroke="#000000"/>
  <text x="147" y="170" font-family="Arial" font-size="14" font-weight="bold" text-anchor="middle">256</text>
  <text x="147" y="255" font-family="Arial" font-size="8" text-anchor="middle">FC1 + ELU</text>
  
  <rect x="225" y="100" width="50" height="120" fill="#D3D3D3" stroke="#000000"/>
  <text x="250" y="170" font-family="Arial" font-size="14" font-weight="bold" text-anchor="middle">128</text>
  <text x="250" y="245" font-family="Arial" font-size="8" text-anchor="middle">FC2 + ELU</text>
  
  <rect x="325" y="110" width="45" height="100" fill="#D3D3D3" stroke="#000000"/>
  <text x="347" y="170" font-family="Arial" font-size="14" font-weight="bold" text-anchor="middle">64</text>
  <text x="347" y="235" font-family="Arial" font-size="8" text-anchor="middle">FC3 + ELU</text>
  
  <!-- Output layer -->
  <rect x="390" y="135" width="40" height="50" fill="#DDA0DD" stroke="#000000"/>
  <text x="410" y="160" font-family="Arial" font-size="10" text-anchor="middle">mean</text>
  <text x="410" y="175" font-family="Arial" font-size="10" text-anchor="middle">actions</text>
  
  <!-- Connections -->
  <line x1="70" y1="160" x2="120" y2="160" stroke="#000000" stroke-width="1"/>
  <line x1="175" y1="160" x2="225" y2="160" stroke="#000000" stroke-width="1"/>
  <line x1="275" y1="160" x2="325" y2="160" stroke="#000000" stroke-width="1"/>
  <line x1="370" y1="160" x2="390" y2="160" stroke="#000000" stroke-width="1"/>
</svg>
