<svg xmlns="http://www.w3.org/2000/svg" viewBox="0 0 500 300">
  <rect x="10" y="10" width="480" height="280" fill="#f0f0f0" stroke="#000000" stroke-width="2"/>
  
  <!-- Input layer -->
  <rect x="30" y="110" width="40" height="50" fill="#90EE90" stroke="#000000"/>
  <text x="50" y="135" font-family="Arial" font-size="10" text-anchor="middle">states</text>
  
  <rect x="30" y="160" width="40" height="50" fill="#DDA0DD" stroke="#000000"/>
  <text x="50" y="185" font-family="Arial" font-size="10" text-anchor="middle">taken</text>
  <text x="50" y="200" font-family="Arial" font-size="10" text-anchor="middle">actions</text>
  
  <!-- Hidden layers -->
  <rect x="120" y="80" width="60" height="160" fill="#D3D3D3" stroke="#000000"/>
  <text x="150" y="170" font-family="Arial" font-size="14" font-weight="bold" text-anchor="middle">512</text>
  <text x="150" y="265" font-family="Arial" font-size="8" text-anchor="middle">FC1 + ELU</text>
  
  <rect x="220" y="90" width="55" height="140" fill="#D3D3D3" stroke="#000000"/>
  <text x="247" y="170" font-family="Arial" font-size="14" font-weight="bold" text-anchor="middle">256</text>
  <text x="247" y="255" font-family="Arial" font-size="8" text-anchor="middle">FC2 + ELU</text>
  
  <rect x="315" y="100" width="50" height="120" fill="#D3D3D3" stroke="#000000"/>
  <text x="340" y="170" font-family="Arial" font-size="14" font-weight="bold" text-anchor="middle">128</text>
  <text x="340" y="245" font-family="Arial" font-size="8" text-anchor="middle">FC3 + ELU</text>
  
  <rect x="405" y="110" width="45" height="100" fill="#D3D3D3" stroke="#000000"/>
  <text x="427" y="170" font-family="Arial" font-size="14" font-weight="bold" text-anchor="middle">64</text>
  <text x="427" y="235" font-family="Arial" font-size="8" text-anchor="middle">FC4 + ELU</text>
  
  <!-- Connections -->
  <line x1="70" y1="160" x2="120" y2="160" stroke="#000000" stroke-width="1"/>
  <line x1="180" y1="160" x2="220" y2="160" stroke="#000000" stroke-width="1"/>
  <line x1="275" y1="160" x2="315" y2="160" stroke="#000000" stroke-width="1"/>
  <line x1="365" y1="160" x2="405" y2="160" stroke="#000000" stroke-width="1"/>
</svg>
